<svg width="21" height="27" viewBox="0 0 21 27" fill="none" xmlns="http://www.w3.org/2000/svg">

    <style>
        @media (prefers-color-scheme: dark) {
            path {
                fill: #fff;
                stroke: #fff;
            }
        }
    </style>
    <path fill-rule="evenodd" clip-rule="evenodd" d="M11.5968 1.04927C9.58623 1.67837 6.38215 5.72191 4.00585 10.6275C2.37313 14.0011 1.36486 17.2522 1.06046 20.1288C0.973827 20.9524 0.981046 22.177 1.0773 22.7821C1.35524 24.5253 2.11685 25.565 3.3802 25.9228C3.82056 26.05 4.64595 26.0164 5.27401 25.8483C6.66851 25.4762 8.35417 24.4581 10.011 22.9862C10.8797 22.213 12.386 20.597 13.0658 19.7086L13.1561 19.5933L13.1308 20.0111C13.0586 21.2573 13.5267 21.9225 14.1331 21.4302C14.6841 20.9836 15.8272 19.2956 16.6333 17.7421C16.8727 17.2786 16.9317 17.1274 16.9317 16.9689C16.9317 16.7816 16.8571 16.5583 16.7957 16.5583C16.7801 16.5583 16.5394 16.9305 16.2615 17.3867C15.5576 18.5392 14.9163 19.4805 14.494 19.9895C14.1271 20.4289 13.7312 20.7363 13.5856 20.6955C13.5134 20.6763 13.5038 20.6354 13.4954 20.2849C13.487 19.9823 13.511 19.7374 13.6025 19.1948C13.6674 18.8106 13.7444 18.3904 13.7733 18.2583C13.801 18.1262 14.1259 17.2858 14.4952 16.3878C14.8646 15.4898 15.3363 14.318 15.5432 13.785C15.8548 12.983 15.9342 12.8149 16.0076 12.8149C16.057 12.8149 16.3337 12.7861 16.6249 12.7477C17.4551 12.642 19.1756 12.5484 19.4644 12.5916C19.6485 12.6204 19.7267 12.6588 19.7267 12.7213C19.7267 12.7717 19.7568 12.8437 19.7941 12.8821C19.8482 12.9398 19.8759 12.9278 19.93 12.8173C20.0672 12.5436 19.9986 12.181 19.7604 11.9241C19.5955 11.7464 18.3502 11.768 16.5779 11.9769L16.2086 12.0201L16.5431 11.0429C17.1856 9.16755 17.5453 7.7941 17.6861 6.68957C17.7643 6.07487 17.7354 5.82756 17.5754 5.7147C17.2842 5.5106 16.9172 6.22855 16.152 8.49523C15.9114 9.20597 15.548 10.3249 15.3447 10.978C15.1413 11.6335 14.9705 12.181 14.9657 12.1954C14.9597 12.2098 14.7371 12.2626 14.4688 12.3107C13.5591 12.4787 12.9768 12.63 12.9203 12.7117C12.8445 12.8245 12.8842 13.1198 12.9937 13.2639C13.0658 13.3576 13.1152 13.3624 13.3763 13.2951C13.7095 13.2087 14.6938 13.0262 14.7058 13.0478C14.7106 13.055 14.6228 13.372 14.5133 13.749C14.1343 15.0504 13.7817 16.3878 13.5676 17.3363L13.3546 18.2847L13.0033 18.7361C11.2575 20.9908 8.94012 23.0654 6.95968 24.1435C5.25356 25.0752 3.69182 25.2697 2.64746 24.6814C1.88223 24.2492 1.41419 23.2959 1.36607 22.0689C1.29026 20.148 1.86779 17.4035 2.94344 14.5701C4.53887 10.3657 7.33026 5.78434 9.75468 3.39519C10.6859 2.48035 11.3826 2.02654 11.9721 1.9521C13.0141 1.82004 13.2463 2.86214 12.7903 5.63306C12.6507 6.48307 12.4991 7.15059 12.1093 8.6321C11.7772 9.8951 11.7472 10.1496 11.8783 10.5962C11.9962 10.9996 12.0335 10.9324 12.3139 9.81587C13.0081 7.04974 13.3558 4.69661 13.3089 3.08064C13.28 2.06495 13.0863 1.48868 12.67 1.17413C12.4522 1.00845 11.9216 0.94842 11.5968 1.04927ZM17.2734 6.98971C17.2156 7.29466 16.9341 8.37998 16.756 8.98267C16.5358 9.73183 15.7935 11.9481 15.7249 12.0609C15.6972 12.1066 15.6274 12.1354 15.5709 12.1234L15.4662 12.1018L15.9198 10.6707C16.5058 8.81699 16.8896 7.69805 17.1049 7.21542C17.2 7.00172 17.2842 6.82884 17.2914 6.82884C17.2987 6.82884 17.2902 6.90087 17.2734 6.98971ZM15.3675 13.0718C15.3218 13.2351 14.648 14.8559 14.624 14.8559C14.6143 14.8559 14.6276 14.7886 14.6553 14.7046C14.6829 14.6206 14.8165 14.1908 14.9524 13.7514C15.1762 13.0214 15.2075 12.9518 15.299 12.9518C15.3844 12.9518 15.3952 12.9686 15.3675 13.0718Z" fill="#000000" stroke="#000000"/>
</svg>
